<svg xmlns="http://www.w3.org/2000/svg" viewBox="0 0 32 32">
  <defs>
    <linearGradient id="g" x1="0" y1="0" x2="0" y2="1">
      <stop offset="0%" stop-color="#5bb37a"/>
      <stop offset="100%" stop-color="#246340"/>
    </linearGradient>
  </defs>
  <rect width="32" height="32" rx="7" fill="#0e2418"/>
  <path d="M16 4C10.5 4 6 9.5 6 16s4.5 12 10 12 10-5.5 10-12S21.5 4 16 4z" fill="url(#g)" opacity="0.9"/>
  <path d="M16 7c-1.5 0-3 1.2-4 3.2C11 12.2 10.5 14 10.5 16s.5 3.8 1.5 5.8c1 2 2.5 3.2 4 3.2" fill="none" stroke="#f0f7f2" stroke-width="1.5" stroke-linecap="round" opacity="0.7"/>
  <path d="M16 7c1.5 0 3 1.2 4 3.2 1 2 1.5 3.8 1.5 5.8s-.5 3.8-1.5 5.8c-1 2-2.5 3.2-4 3.2" fill="none" stroke="#f0f7f2" stroke-width="1.5" stroke-linecap="round" opacity="0.35"/>
  <line x1="16" y1="6" x2="16" y2="26" stroke="#f0f7f2" stroke-width="1" opacity="0.5"/>
</svg>
